<?xml version="1.0" encoding="utf-8"?>
<!-- Generator: Adobe Illustrator 26.5.0, SVG Export Plug-In . SVG Version: 6.00 Build 0)  -->
<svg version="1.1" id="Layer_1" xmlns="http://www.w3.org/2000/svg" xmlns:xlink="http://www.w3.org/1999/xlink" x="0px" y="0px"
	 viewBox="0 0 657.64 174.9" style="enable-background:new 0 0 657.64 174.9;" xml:space="preserve">
<style type="text/css">
	.st0{fill-rule:evenodd;clip-rule:evenodd;fill:#ACE3FC;}
	.st1{fill-rule:evenodd;clip-rule:evenodd;fill:#CCEFFF;}
	.st2{fill-rule:evenodd;clip-rule:evenodd;fill:#86D6F2;}
	.st3{font-family:'Montserrat-Black';}
	.st4{font-size:87.4527px;}
	.st5{font-size:66.7245px;}
</style>
<g id="GarpuPiso">
	<path class="st0" d="M41.9,157.36c-6.54,3.41-12.51,3.13-17.63-0.85C109.01,72.05,151.38,29.68,151.38,29.68
		c1.99,2.27,3.13,3.13,3.13,3.13c-15.36,15.36-23.03,23.03-23.03,23.03c3.98,3.98,5.97,5.97,5.97,5.97
		c15.36-15.36,23.03-23.03,23.03-23.03c3.98,3.98,5.97,5.97,5.97,5.97c-21.61,21.61-32.42,32.42-32.42,32.42
		c-2.84,1.99-6.26,3.41-9.95,3.98c-4.55,0-7.96,1.42-10.81,4.27C65.79,133.19,41.9,157.36,41.9,157.36z"/>
	<path class="st1" d="M23.99,139.16c-4.55,6.82-3.7,13.37,0.28,17.35L151.38,29.68l-3.41-2.84c0,0-7.68,7.68-23.03,23.03
		c0,0-1.99-1.99-5.97-5.97c0,0,7.68-7.68,23.03-23.03c0,0-1.99-1.99-6.26-5.97c0,0-10.52,10.52-31.28,31.56
		c-2.56,2.56-4.27,6.54-4.83,11.94c-0.28,3.13-1.42,5.69-3.13,7.68L23.99,139.16z M24.27,156.51c1.99,1.99,4.55,3.13,7.96,3.13
		C29.39,159.64,26.83,158.5,24.27,156.51z M40.48,157.93h0.28H40.48z M41.05,157.65c0,0,0.28,0,0.28-0.28
		C41.33,157.65,41.05,157.65,41.05,157.65z M42.19,157.08l70.24-70.52c0.28-0.57,0.57-0.85,0.85-1.14L42.19,157.08z M117.83,82.29
		c1.14-0.57,2.56-0.85,3.98-0.85c0.85-0.28,1.42-0.28,2.27-0.28C121.81,81.15,119.53,81.44,117.83,82.29z M129.49,79.73
		c1.71-0.57,3.13-1.71,4.55-2.56C132.61,78.03,130.91,79.16,129.49,79.73z"/>
	<path class="st2" d="M143.99,156.23c15.64,11.37,29.01-5.4,17.92-18.48l-50.05-50.62l-18.48,18.2
		C127.21,139.16,143.99,156.23,143.99,156.23z M93.66,68.93L35.65,10.63c-3.41,5.4-5.69,13.93-6.82,24.74
		c0.28,10.81,4.27,19.05,11.37,24.74c15.64,15.92,26.16,26.16,31.28,31.28L93.66,68.93z"/>
</g>
<text transform="matrix(1 0 0 1 185.917 89.6343)" class="st3 st4">KULINER</text>
<text transform="matrix(1 0 0 1 187.0527 147.9951)" class="st3 st5">SEMARANG</text>
</svg>
